<svg width="982" height="740" viewBox="0 0 982 740" fill="none" xmlns="http://www.w3.org/2000/svg">
<path d="M25 65.5625V292.75C25 294.417 24.375 295.875 23.125 297.125C21.875 298.375 20.4167 299 18.75 299C17.0833 299 15.625 298.375 14.375 297.125C13.125 295.875 12.5 294.417 12.5 292.75V42.125C12.5 40.4583 13.125 39 14.375 37.75C15.625 36.5 17.0833 35.875 18.75 35.875C20.4167 35.875 21.875 36.5 23.125 37.75C23.9583 38.5833 24.8958 40.0417 25.9375 42.125L156.875 269.312V42.125C156.875 40.4583 157.5 39 158.75 37.75C160 36.5 161.458 35.875 163.125 35.875C164.792 35.875 166.25 36.5 167.5 37.75C168.75 39 169.375 40.4583 169.375 42.125V292.75C169.375 294.417 168.75 295.875 167.5 297.125C166.25 298.375 164.792 299 163.125 299C161.458 299 160 298.375 158.75 297.125C157.917 296.292 156.979 294.833 155.938 292.75L25 65.5625ZM277.25 51.5V281.188H306.312C307.979 281.188 309.438 281.812 310.688 283.062C311.938 284.312 312.562 285.771 312.562 287.438C312.562 289.104 311.938 290.562 310.688 291.812C309.438 293.062 307.979 293.688 306.312 293.688H235.375C233.708 293.688 232.25 293.062 231 291.812C229.75 290.562 229.125 289.104 229.125 287.438C229.125 285.771 229.75 284.312 231 283.062C232.25 281.812 233.708 281.188 235.375 281.188H264.438V51.5H235.375C233.708 51.5 232.25 50.875 231 49.625C229.75 48.375 229.125 46.9167 229.125 45.25C229.125 43.5833 229.75 42.125 231 40.875C232.25 39.625 233.708 39 235.375 39H306.312C307.979 39 309.438 39.625 310.688 40.875C311.938 42.125 312.562 43.5833 312.562 45.25C312.562 46.9167 311.938 48.375 310.688 49.625C309.438 50.875 307.979 51.5 306.312 51.5H277.25ZM567.312 233.688C565.021 241.188 559.812 250.562 551.688 261.812C534.188 285.979 508.667 298.062 475.125 298.062C445.542 298.062 420.958 284.938 401.375 258.688C382 232.438 372.312 201.604 372.312 166.188C372.312 130.562 382 99.7292 401.375 73.6875C420.958 47.4375 445.542 34.3125 475.125 34.3125C508.875 34.3125 534.5 46.2917 552 70.25C560.125 81.7083 565.229 91.0833 567.312 98.375C568.146 100.875 568.562 103.062 568.562 104.938C568.562 108.271 567.312 110.458 564.812 111.5C563.979 111.917 563.25 112.125 562.625 112.125C559.708 112.125 557.521 109.312 556.062 103.688C554.188 97.0208 549.708 88.6875 542.625 78.6875C527.208 57.4375 504.708 46.8125 475.125 46.8125C449.708 46.8125 428.25 58.5833 410.75 82.125C393.458 105.458 384.812 133.479 384.812 166.188C384.812 198.688 393.458 226.708 410.75 250.25C428.25 273.792 449.708 285.562 475.125 285.562C504.5 285.562 526.896 274.833 542.312 253.375C549.604 243.375 554.188 235.042 556.062 228.375C557.521 222.958 559.708 220.25 562.625 220.25C563.458 220.25 564.188 220.354 564.812 220.562C567.312 221.396 568.562 223.583 568.562 227.125C568.562 229 568.146 231.188 567.312 233.688ZM807.062 292.125C807.062 294 806.438 295.562 805.188 296.812C803.938 297.854 802.479 298.375 800.812 298.375C799.146 298.375 797.688 297.854 796.438 296.812C795.188 295.562 794.562 294 794.562 292.125V170.875H622.062V292.125C622.062 294 621.438 295.562 620.188 296.812C618.938 297.854 617.479 298.375 615.812 298.375C614.146 298.375 612.688 297.854 611.438 296.812C610.188 295.562 609.562 294 609.562 292.125V40.875C609.562 39.2083 610.188 37.75 611.438 36.5C612.688 35.25 614.146 34.625 615.812 34.625C617.479 34.625 618.938 35.25 620.188 36.5C621.438 37.75 622.062 39.2083 622.062 40.875V158.062H794.562V40.875C794.562 39.2083 795.188 37.75 796.438 36.5C797.688 35.25 799.146 34.625 800.812 34.625C802.479 34.625 803.938 35.25 805.188 36.5C806.438 37.75 807.062 39.2083 807.062 40.875V292.125ZM914.938 51.5V281.188H944C945.667 281.188 947.125 281.812 948.375 283.062C949.625 284.312 950.25 285.771 950.25 287.438C950.25 289.104 949.625 290.562 948.375 291.812C947.125 293.062 945.667 293.688 944 293.688H873.062C871.396 293.688 869.938 293.062 868.688 291.812C867.438 290.562 866.812 289.104 866.812 287.438C866.812 285.771 867.438 284.312 868.688 283.062C869.938 281.812 871.396 281.188 873.062 281.188H902.125V51.5H873.062C871.396 51.5 869.938 50.875 868.688 49.625C867.438 48.375 866.812 46.9167 866.812 45.25C866.812 43.5833 867.438 42.125 868.688 40.875C869.938 39.625 871.396 39 873.062 39H944C945.667 39 947.125 39.625 948.375 40.875C949.625 42.125 950.25 43.5833 950.25 45.25C950.25 46.9167 949.625 48.375 948.375 49.625C947.125 50.875 945.667 51.5 944 51.5H914.938Z" fill="white"/>
<path d="M146.029 360.889C145.476 360.889 145.15 360.938 145.053 361.035C144.955 361.133 144.906 361.458 144.906 362.012V395.312C144.906 395.866 144.955 396.191 145.053 396.289C145.15 396.387 145.476 396.436 146.029 396.436H160.141C160.629 396.403 161.101 396.322 161.557 396.191C164.617 395.117 167.009 392.822 168.734 389.307C170.557 385.824 171.485 382.194 171.518 378.418L171.42 376.562C171.062 372.786 169.923 369.482 168.002 366.65C165.984 363.33 163.38 361.41 160.189 360.889H146.029ZM160.336 358.936C164.242 359.587 167.335 361.816 169.613 365.625C171.729 368.685 172.982 372.282 173.373 376.416L173.471 378.418C173.438 382.52 172.445 386.442 170.492 390.186C168.539 394.157 165.756 396.777 162.143 398.047C161.524 398.242 160.889 398.356 160.238 398.389H146.029C144.955 398.389 144.174 398.145 143.686 397.656C143.197 397.168 142.953 396.387 142.953 395.312V362.012C142.953 360.938 143.197 360.156 143.686 359.668C144.174 359.18 144.955 358.936 146.029 358.936H160.336ZM235.385 384.521L229.232 398.975C229.135 399.202 228.956 399.365 228.695 399.463C228.565 399.495 228.435 399.512 228.305 399.512C228.207 399.512 228.093 399.495 227.963 399.463C227.735 399.365 227.572 399.186 227.475 398.926C227.41 398.796 227.377 398.665 227.377 398.535C227.377 398.405 227.393 398.291 227.426 398.193L243.979 359.229C244.109 358.838 244.304 358.594 244.564 358.496C244.695 358.431 244.825 358.398 244.955 358.398C245.085 358.398 245.215 358.431 245.346 358.496C245.606 358.594 245.801 358.838 245.932 359.229L262.484 398.193C262.517 398.291 262.533 398.405 262.533 398.535C262.533 398.665 262.517 398.796 262.484 398.926C262.354 399.186 262.175 399.365 261.947 399.463C261.85 399.495 261.736 399.512 261.605 399.512C261.475 399.512 261.345 399.495 261.215 399.463C260.954 399.365 260.775 399.202 260.678 398.975L254.525 384.521H235.385ZM253.695 382.568L244.955 361.963L236.215 382.568H253.695ZM330.404 377.051L316.684 359.814C316.521 359.619 316.439 359.408 316.439 359.18C316.439 358.952 316.537 358.724 316.732 358.496C316.96 358.268 317.204 358.154 317.465 358.154C317.693 358.154 317.937 358.268 318.197 358.496L331.381 374.902L344.662 358.496L344.857 358.35C345.02 358.219 345.199 358.154 345.395 358.154C345.622 358.154 345.867 358.268 346.127 358.496C346.322 358.724 346.42 358.952 346.42 359.18C346.42 359.408 346.339 359.619 346.176 359.814L332.357 377.051V398.145C332.357 398.405 332.26 398.633 332.064 398.828C331.869 399.023 331.641 399.121 331.381 399.121C331.12 399.121 330.893 399.023 330.697 398.828C330.502 398.633 330.404 398.405 330.404 398.145V377.051ZM492.562 378.662L507.162 397.314C507.292 397.51 507.357 397.721 507.357 397.949V398.047C507.325 398.34 507.211 398.568 507.016 398.73C506.82 398.828 506.625 398.877 506.43 398.877H506.283C506.023 398.844 505.811 398.73 505.648 398.535L491.342 380.225L477.035 398.535C476.872 398.73 476.661 398.844 476.4 398.877H476.254C476.059 398.877 475.863 398.828 475.668 398.73C475.473 398.568 475.359 398.34 475.326 398.047V397.949C475.326 397.721 475.391 397.51 475.521 397.314L490.121 378.662L475.521 360.01C475.391 359.814 475.326 359.603 475.326 359.375V359.229C475.359 358.968 475.473 358.757 475.668 358.594C475.863 358.496 476.059 358.447 476.254 358.447H476.4C476.661 358.48 476.872 358.594 477.035 358.789L491.342 377.1L505.648 358.789C505.811 358.594 506.023 358.48 506.283 358.447H506.43C506.625 358.447 506.82 358.496 507.016 358.594C507.211 358.757 507.325 358.968 507.357 359.229V359.375C507.357 359.603 507.292 359.814 507.162 360.01L492.562 378.662ZM639.34 360.889C638.786 360.889 638.461 360.938 638.363 361.035C638.266 361.133 638.217 361.458 638.217 362.012V395.312C638.217 395.866 638.266 396.191 638.363 396.289C638.461 396.387 638.786 396.436 639.34 396.436H653.451C653.939 396.403 654.411 396.322 654.867 396.191C657.927 395.117 660.32 392.822 662.045 389.307C663.868 385.824 664.796 382.194 664.828 378.418L664.73 376.562C664.372 372.786 663.233 369.482 661.312 366.65C659.294 363.33 656.69 361.41 653.5 360.889H639.34ZM653.646 358.936C657.553 359.587 660.645 361.816 662.924 365.625C665.04 368.685 666.293 372.282 666.684 376.416L666.781 378.418C666.749 382.52 665.756 386.442 663.803 390.186C661.85 394.157 659.066 396.777 655.453 398.047C654.835 398.242 654.2 398.356 653.549 398.389H639.34C638.266 398.389 637.484 398.145 636.996 397.656C636.508 397.168 636.264 396.387 636.264 395.312V362.012C636.264 360.938 636.508 360.156 636.996 359.668C637.484 359.18 638.266 358.936 639.34 358.936H653.646ZM728.695 384.521L722.543 398.975C722.445 399.202 722.266 399.365 722.006 399.463C721.876 399.495 721.745 399.512 721.615 399.512C721.518 399.512 721.404 399.495 721.273 399.463C721.046 399.365 720.883 399.186 720.785 398.926C720.72 398.796 720.688 398.665 720.688 398.535C720.688 398.405 720.704 398.291 720.736 398.193L737.289 359.229C737.419 358.838 737.615 358.594 737.875 358.496C738.005 358.431 738.135 358.398 738.266 358.398C738.396 358.398 738.526 358.431 738.656 358.496C738.917 358.594 739.112 358.838 739.242 359.229L755.795 398.193C755.827 398.291 755.844 398.405 755.844 398.535C755.844 398.665 755.827 398.796 755.795 398.926C755.665 399.186 755.486 399.365 755.258 399.463C755.16 399.495 755.046 399.512 754.916 399.512C754.786 399.512 754.656 399.495 754.525 399.463C754.265 399.365 754.086 399.202 753.988 398.975L747.836 384.521H728.695ZM747.006 382.568L738.266 361.963L729.525 382.568H747.006ZM823.715 377.051L809.994 359.814C809.831 359.619 809.75 359.408 809.75 359.18C809.75 358.952 809.848 358.724 810.043 358.496C810.271 358.268 810.515 358.154 810.775 358.154C811.003 358.154 811.247 358.268 811.508 358.496L824.691 374.902L837.973 358.496L838.168 358.35C838.331 358.219 838.51 358.154 838.705 358.154C838.933 358.154 839.177 358.268 839.438 358.496C839.633 358.724 839.73 358.952 839.73 359.18C839.73 359.408 839.649 359.619 839.486 359.814L825.668 377.051V398.145C825.668 398.405 825.57 398.633 825.375 398.828C825.18 399.023 824.952 399.121 824.691 399.121C824.431 399.121 824.203 399.023 824.008 398.828C823.812 398.633 823.715 398.405 823.715 398.145V377.051Z" fill="white"/>
<path d="M160.141 396.436V397.436H160.174L160.207 397.433L160.141 396.436ZM161.557 396.191L161.831 397.153L161.86 397.145L161.888 397.135L161.557 396.191ZM168.734 389.307L167.848 388.843L167.842 388.854L167.837 388.866L168.734 389.307ZM171.518 378.418L172.518 378.427L172.518 378.396L172.516 378.365L171.518 378.418ZM171.42 376.562L172.419 376.51L172.417 376.489L172.415 376.468L171.42 376.562ZM168.002 366.65L167.147 367.17L167.16 367.191L167.174 367.212L168.002 366.65ZM160.189 360.889L160.351 359.902L160.271 359.889H160.189V360.889ZM160.336 358.936L160.5 357.949L160.419 357.936H160.336V358.936ZM169.613 365.625L168.755 366.138L168.772 366.167L168.791 366.194L169.613 365.625ZM173.373 376.416L174.372 376.367L174.371 376.345L174.369 376.322L173.373 376.416ZM173.471 378.418L174.471 378.426L174.471 378.398L174.47 378.369L173.471 378.418ZM170.492 390.186L169.606 389.723L169.6 389.734L169.595 389.744L170.492 390.186ZM162.143 398.047L162.444 399L162.459 398.996L162.474 398.99L162.143 398.047ZM160.238 398.389V399.389H160.263L160.288 399.387L160.238 398.389ZM146.029 359.889C145.731 359.889 145.456 359.901 145.222 359.936C145.105 359.954 144.973 359.981 144.842 360.026C144.724 360.067 144.523 360.15 144.346 360.328L145.76 361.742C145.69 361.812 145.625 361.853 145.584 361.876C145.542 361.899 145.51 361.911 145.496 361.916C145.47 361.925 145.472 361.921 145.518 361.914C145.61 361.9 145.774 361.889 146.029 361.889V359.889ZM144.346 360.328C144.168 360.506 144.084 360.707 144.044 360.824C143.998 360.955 143.971 361.088 143.954 361.204C143.919 361.438 143.906 361.714 143.906 362.012H145.906C145.906 361.756 145.918 361.593 145.932 361.501C145.939 361.455 145.942 361.453 145.934 361.478C145.929 361.492 145.917 361.524 145.894 361.566C145.871 361.607 145.829 361.673 145.76 361.742L144.346 360.328ZM143.906 362.012V395.312H145.906V362.012H143.906ZM143.906 395.312C143.906 395.61 143.919 395.886 143.954 396.12C143.971 396.237 143.998 396.369 144.044 396.5C144.084 396.617 144.168 396.818 144.346 396.996L145.76 395.582C145.829 395.651 145.871 395.717 145.894 395.758C145.917 395.8 145.929 395.832 145.934 395.846C145.942 395.871 145.939 395.869 145.932 395.823C145.918 395.732 145.906 395.568 145.906 395.312H143.906ZM144.346 396.996C144.523 397.174 144.724 397.258 144.842 397.298C144.973 397.344 145.105 397.37 145.222 397.388C145.456 397.423 145.731 397.436 146.029 397.436V395.436C145.774 395.436 145.61 395.424 145.518 395.41C145.472 395.403 145.47 395.399 145.496 395.408C145.51 395.413 145.542 395.425 145.584 395.448C145.625 395.471 145.69 395.512 145.76 395.582L144.346 396.996ZM146.029 397.436H160.141V395.436H146.029V397.436ZM160.207 397.433C160.764 397.396 161.306 397.303 161.831 397.153L161.282 395.23C160.896 395.34 160.494 395.41 160.074 395.438L160.207 397.433ZM161.888 397.135C165.245 395.956 167.817 393.446 169.632 389.747L167.837 388.866C166.201 392.198 163.988 394.278 161.225 395.248L161.888 397.135ZM169.62 389.77C171.514 386.153 172.484 382.368 172.518 378.427L170.518 378.409C170.486 382.02 169.601 385.494 167.848 388.843L169.62 389.77ZM172.516 378.365L172.419 376.51L170.421 376.615L170.519 378.471L172.516 378.365ZM172.415 376.468C172.043 372.543 170.854 369.075 168.83 366.089L167.174 367.212C168.991 369.89 170.08 373.03 170.424 376.657L172.415 376.468ZM168.856 366.131C166.72 362.616 163.887 360.479 160.351 359.902L160.028 361.876C162.872 362.34 165.247 364.044 167.147 367.17L168.856 366.131ZM160.189 359.889H146.029V361.889H160.189V359.889ZM160.172 359.922C163.751 360.519 166.607 362.548 168.755 366.138L170.471 365.112C168.063 361.085 164.733 358.655 160.5 357.949L160.172 359.922ZM168.791 366.194C170.798 369.097 172.001 372.526 172.377 376.51L174.369 376.322C173.964 372.038 172.66 368.273 170.436 365.056L168.791 366.194ZM172.374 376.465L172.472 378.467L174.47 378.369L174.372 376.367L172.374 376.465ZM172.471 378.41C172.439 382.348 171.488 386.116 169.606 389.723L171.379 390.648C173.403 386.768 174.437 382.691 174.471 378.426L172.471 378.41ZM169.595 389.744C167.738 393.52 165.139 395.934 161.811 397.103L162.474 398.99C166.373 397.62 169.34 394.794 171.39 390.627L169.595 389.744ZM161.841 397.093C161.305 397.263 160.755 397.362 160.188 397.39L160.288 399.387C161.024 399.351 161.743 399.222 162.444 399L161.841 397.093ZM160.238 397.389H146.029V399.389H160.238V397.389ZM146.029 397.389C145.077 397.389 144.612 397.168 144.393 396.949L142.978 398.363C143.736 399.121 144.833 399.389 146.029 399.389V397.389ZM144.393 396.949C144.174 396.73 143.953 396.265 143.953 395.312H141.953C141.953 396.508 142.221 397.606 142.978 398.363L144.393 396.949ZM143.953 395.312V362.012H141.953V395.312H143.953ZM143.953 362.012C143.953 361.059 144.174 360.594 144.393 360.375L142.978 358.961C142.221 359.718 141.953 360.816 141.953 362.012H143.953ZM144.393 360.375C144.612 360.156 145.077 359.936 146.029 359.936V357.936C144.833 357.936 143.736 358.203 142.978 358.961L144.393 360.375ZM146.029 359.936H160.336V357.936H146.029V359.936ZM235.385 384.521V383.521H234.724L234.465 384.13L235.385 384.521ZM229.232 398.975L230.152 399.369L230.153 399.366L229.232 398.975ZM228.695 399.463L228.938 400.433L228.993 400.419L229.046 400.399L228.695 399.463ZM227.963 399.463L227.569 400.382L227.643 400.414L227.72 400.433L227.963 399.463ZM227.475 398.926L228.411 398.575L228.393 398.526L228.369 398.479L227.475 398.926ZM227.426 398.193L226.505 397.802L226.49 397.839L226.477 397.877L227.426 398.193ZM243.979 359.229L244.899 359.62L244.915 359.583L244.927 359.545L243.979 359.229ZM244.564 358.496L244.916 359.432L244.965 359.414L245.012 359.391L244.564 358.496ZM245.346 358.496L244.898 359.391L244.945 359.414L244.995 359.432L245.346 358.496ZM245.932 359.229L244.983 359.545L244.996 359.583L245.011 359.62L245.932 359.229ZM262.484 398.193L263.433 397.877L263.42 397.839L263.405 397.802L262.484 398.193ZM262.484 398.926L263.379 399.373L263.428 399.275L263.455 399.168L262.484 398.926ZM261.947 399.463L262.263 400.412L262.303 400.398L262.341 400.382L261.947 399.463ZM261.215 399.463L260.864 400.399L260.917 400.419L260.972 400.433L261.215 399.463ZM260.678 398.975L259.758 399.366L259.759 399.369L260.678 398.975ZM254.525 384.521L255.445 384.13L255.187 383.521H254.525V384.521ZM253.695 382.568V383.568H255.206L254.616 382.178L253.695 382.568ZM244.955 361.963L245.876 361.572L244.955 359.402L244.034 361.572L244.955 361.963ZM236.215 382.568L235.294 382.178L234.704 383.568H236.215V382.568ZM234.465 384.13L228.312 398.583L230.153 399.366L236.305 384.913L234.465 384.13ZM228.313 398.581C228.316 398.575 228.32 398.566 228.328 398.555C228.336 398.544 228.344 398.535 228.352 398.528C228.369 398.512 228.373 398.516 228.344 398.527L229.046 400.399C229.528 400.219 229.933 399.879 230.152 399.369L228.313 398.581ZM228.453 398.493C228.399 398.506 228.351 398.512 228.305 398.512V400.512C228.519 400.512 228.731 400.485 228.938 400.433L228.453 398.493ZM228.305 398.512C228.311 398.512 228.306 398.512 228.287 398.51C228.27 398.507 228.243 398.502 228.205 398.493L227.72 400.433C227.903 400.479 228.101 400.512 228.305 400.512V398.512ZM228.357 398.544C228.362 398.546 228.371 398.551 228.382 398.558C228.393 398.566 228.402 398.575 228.41 398.583C228.425 398.6 228.422 398.604 228.411 398.575L226.538 399.277C226.719 399.758 227.059 400.163 227.569 400.382L228.357 398.544ZM228.369 398.479C228.366 398.473 228.369 398.477 228.372 398.488C228.374 398.5 228.377 398.516 228.377 398.535H226.377C226.377 398.838 226.454 399.12 226.58 399.373L228.369 398.479ZM228.377 398.535C228.377 398.511 228.378 398.498 228.379 398.493C228.38 398.489 228.379 398.495 228.374 398.51L226.477 397.877C226.403 398.1 226.377 398.325 226.377 398.535H228.377ZM228.346 398.584L244.899 359.62L243.058 358.838L226.505 397.802L228.346 398.584ZM244.927 359.545C244.966 359.428 244.999 359.383 245.004 359.377C245.005 359.376 244.998 359.384 244.981 359.397C244.964 359.41 244.942 359.423 244.916 359.432L244.213 357.56C243.555 357.806 243.208 358.377 243.03 358.912L244.927 359.545ZM245.012 359.391C245.017 359.388 245.014 359.39 245.002 359.393C244.991 359.396 244.974 359.398 244.955 359.398V357.398C244.652 357.398 244.37 357.475 244.117 357.602L245.012 359.391ZM244.955 359.398C244.936 359.398 244.92 359.396 244.908 359.393C244.896 359.39 244.893 359.388 244.898 359.391L245.793 357.602C245.54 357.475 245.258 357.398 244.955 357.398V359.398ZM244.995 359.432C244.969 359.423 244.946 359.41 244.929 359.397C244.912 359.384 244.905 359.376 244.907 359.377C244.911 359.383 244.944 359.428 244.983 359.545L246.88 358.912C246.702 358.377 246.355 357.806 245.697 357.56L244.995 359.432ZM245.011 359.62L261.564 398.584L263.405 397.802L246.852 358.838L245.011 359.62ZM261.536 398.51C261.531 398.495 261.53 398.489 261.531 398.493C261.532 398.498 261.533 398.511 261.533 398.535H263.533C263.533 398.325 263.507 398.1 263.433 397.877L261.536 398.51ZM261.533 398.535C261.533 398.581 261.528 398.63 261.514 398.683L263.455 399.168C263.506 398.961 263.533 398.75 263.533 398.535H261.533ZM261.59 398.479C261.566 398.527 261.548 398.545 261.545 398.548C261.544 398.55 261.544 398.549 261.547 398.547C261.549 398.546 261.552 398.544 261.553 398.544L262.341 400.382C262.823 400.175 263.162 399.806 263.379 399.373L261.59 398.479ZM261.631 398.514C261.645 398.509 261.652 398.509 261.647 398.51C261.643 398.51 261.629 398.512 261.605 398.512V400.512C261.816 400.512 262.041 400.486 262.263 400.412L261.631 398.514ZM261.605 398.512C261.56 398.512 261.511 398.506 261.457 398.493L260.972 400.433C261.179 400.485 261.391 400.512 261.605 400.512V398.512ZM261.566 398.527C261.537 398.516 261.541 398.512 261.558 398.528C261.566 398.535 261.575 398.544 261.582 398.555C261.59 398.566 261.595 398.575 261.597 398.581L259.759 399.369C259.977 399.879 260.382 400.219 260.864 400.399L261.566 398.527ZM261.598 398.583L255.445 384.13L253.605 384.913L259.758 399.366L261.598 398.583ZM254.525 383.521H235.385V385.521H254.525V383.521ZM254.616 382.178L245.876 361.572L244.034 362.353L252.775 382.959L254.616 382.178ZM244.034 361.572L235.294 382.178L237.135 382.959L245.876 362.353L244.034 361.572ZM236.215 383.568H253.695V381.568H236.215V383.568ZM330.404 377.051H331.404V376.701L331.187 376.428L330.404 377.051ZM316.684 359.814L317.466 359.192L317.459 359.183L317.452 359.174L316.684 359.814ZM316.732 358.496L316.025 357.789L315.998 357.816L315.973 357.845L316.732 358.496ZM318.197 358.496L318.977 357.87L318.922 357.801L318.856 357.744L318.197 358.496ZM331.381 374.902L330.601 375.529L331.378 376.495L332.158 375.532L331.381 374.902ZM344.662 358.496L344.062 357.696L343.963 357.771L343.885 357.867L344.662 358.496ZM344.857 358.35L345.457 359.15L345.47 359.14L345.482 359.13L344.857 358.35ZM346.127 358.496L346.886 357.845L346.839 357.791L346.785 357.744L346.127 358.496ZM346.176 359.814L345.408 359.174L345.401 359.182L345.396 359.189L346.176 359.814ZM332.357 377.051L331.577 376.425L331.357 376.699V377.051H332.357ZM331.187 376.428L317.466 359.192L315.901 360.437L329.622 377.674L331.187 376.428ZM317.452 359.174C317.442 359.162 317.437 359.154 317.434 359.15C317.432 359.147 317.432 359.147 317.434 359.15C317.435 359.154 317.437 359.159 317.438 359.165C317.439 359.172 317.439 359.177 317.439 359.18H315.439C315.439 359.669 315.621 360.102 315.915 360.455L317.452 359.174ZM317.439 359.18C317.439 359.195 317.438 359.208 317.436 359.218C317.433 359.228 317.431 359.233 317.432 359.232C317.433 359.228 317.447 359.199 317.492 359.147L315.973 357.845C315.672 358.196 315.439 358.646 315.439 359.18H317.439ZM317.44 359.203C317.487 359.156 317.511 359.145 317.509 359.146C317.508 359.146 317.502 359.149 317.493 359.151C317.483 359.153 317.473 359.154 317.465 359.154V357.154C316.879 357.154 316.394 357.421 316.025 357.789L317.44 359.203ZM317.465 359.154C317.408 359.154 317.382 359.14 317.396 359.146C317.412 359.154 317.46 359.18 317.539 359.249L318.856 357.744C318.504 357.436 318.034 357.154 317.465 357.154V359.154ZM317.418 359.122L330.601 375.529L332.16 374.276L318.977 357.87L317.418 359.122ZM332.158 375.532L345.439 359.125L343.885 357.867L330.604 374.273L332.158 375.532ZM345.262 359.296L345.457 359.15L344.257 357.55L344.062 357.696L345.262 359.296ZM345.482 359.13C345.486 359.127 345.478 359.135 345.456 359.143C345.433 359.151 345.41 359.154 345.395 359.154V357.154C344.956 357.154 344.56 357.307 344.233 357.569L345.482 359.13ZM345.395 359.154C345.338 359.154 345.312 359.14 345.326 359.146C345.342 359.154 345.39 359.18 345.468 359.249L346.785 357.744C346.434 357.436 345.963 357.154 345.395 357.154V359.154ZM345.368 359.147C345.413 359.199 345.426 359.228 345.428 359.232C345.428 359.233 345.426 359.228 345.424 359.218C345.422 359.208 345.42 359.195 345.42 359.18H347.42C347.42 358.646 347.187 358.196 346.886 357.845L345.368 359.147ZM345.42 359.18C345.42 359.177 345.42 359.172 345.421 359.165C345.423 359.159 345.424 359.154 345.426 359.15C345.427 359.147 345.427 359.147 345.425 359.15C345.423 359.154 345.418 359.162 345.408 359.174L346.944 360.455C347.238 360.102 347.42 359.669 347.42 359.18H345.42ZM345.396 359.189L331.577 376.425L333.138 377.676L346.956 360.44L345.396 359.189ZM331.357 377.051V398.145H333.357V377.051H331.357ZM331.357 398.145C331.357 398.147 331.357 398.144 331.359 398.138C331.36 398.131 331.362 398.124 331.365 398.117C331.366 398.114 331.368 398.111 331.369 398.109C331.37 398.107 331.371 398.106 331.37 398.106C331.37 398.106 331.367 398.112 331.357 398.121L332.772 399.535C333.142 399.165 333.357 398.688 333.357 398.145H331.357ZM331.357 398.121C331.348 398.13 331.343 398.134 331.343 398.134C331.343 398.134 331.343 398.134 331.345 398.132C331.347 398.131 331.35 398.13 331.353 398.129C331.36 398.126 331.367 398.124 331.374 398.122C331.38 398.121 331.383 398.121 331.381 398.121V400.121C331.924 400.121 332.401 399.905 332.772 399.535L331.357 398.121ZM331.381 398.121C331.379 398.121 331.381 398.121 331.388 398.122C331.394 398.124 331.402 398.126 331.409 398.129C331.412 398.13 331.414 398.131 331.416 398.132C331.418 398.134 331.419 398.134 331.419 398.134C331.419 398.134 331.414 398.13 331.404 398.121L329.99 399.535C330.36 399.905 330.838 400.121 331.381 400.121V398.121ZM331.404 398.121C331.395 398.112 331.391 398.106 331.391 398.106C331.391 398.106 331.392 398.107 331.393 398.109C331.394 398.111 331.395 398.114 331.397 398.117C331.4 398.124 331.402 398.131 331.403 398.138C331.404 398.144 331.404 398.147 331.404 398.145H329.404C329.404 398.688 329.62 399.165 329.99 399.535L331.404 398.121ZM331.404 398.145V377.051H329.404V398.145H331.404ZM492.562 378.662L491.775 378.046L491.293 378.662L491.775 379.278L492.562 378.662ZM507.162 397.314L507.994 396.76L507.973 396.728L507.95 396.698L507.162 397.314ZM507.357 398.047L508.351 398.157L508.357 398.102V398.047H507.357ZM507.016 398.73L507.463 399.625L507.567 399.573L507.656 399.499L507.016 398.73ZM506.283 398.877L506.159 399.869L506.221 399.877H506.283V398.877ZM505.648 398.535L504.86 399.151L504.87 399.163L504.88 399.175L505.648 398.535ZM491.342 380.225L492.13 379.609L491.342 378.6L490.554 379.609L491.342 380.225ZM477.035 398.535L477.803 399.175L477.813 399.163L477.823 399.151L477.035 398.535ZM476.4 398.877V399.877H476.463L476.524 399.869L476.4 398.877ZM475.668 398.73L475.028 399.499L475.117 399.573L475.221 399.625L475.668 398.73ZM475.326 398.047H474.326V398.102L474.332 398.157L475.326 398.047ZM475.521 397.314L474.734 396.698L474.711 396.728L474.689 396.76L475.521 397.314ZM490.121 378.662L490.909 379.278L491.391 378.662L490.909 378.046L490.121 378.662ZM475.521 360.01L474.689 360.564L474.711 360.596L474.734 360.626L475.521 360.01ZM475.326 359.229L474.334 359.104L474.326 359.166V359.229H475.326ZM475.668 358.594L475.221 357.699L475.117 357.751L475.028 357.826L475.668 358.594ZM476.4 358.447L476.524 357.455L476.463 357.447H476.4V358.447ZM477.035 358.789L477.823 358.173L477.813 358.161L477.803 358.149L477.035 358.789ZM491.342 377.1L490.554 377.715L491.342 378.724L492.13 377.715L491.342 377.1ZM505.648 358.789L504.88 358.149L504.87 358.161L504.86 358.173L505.648 358.789ZM506.283 358.447V357.447H506.221L506.159 357.455L506.283 358.447ZM507.016 358.594L507.656 357.826L507.567 357.751L507.463 357.699L507.016 358.594ZM507.357 359.229H508.357V359.166L508.35 359.104L507.357 359.229ZM507.162 360.01L507.95 360.626L507.973 360.596L507.994 360.564L507.162 360.01ZM491.775 379.278L506.375 397.931L507.95 396.698L493.35 378.046L491.775 379.278ZM506.33 397.869C506.354 397.905 506.357 397.925 506.357 397.949H508.357C508.357 397.518 508.23 397.114 507.994 396.76L506.33 397.869ZM506.357 397.949V398.047H508.357V397.949H506.357ZM506.364 397.936C506.358 397.984 506.35 397.997 506.353 397.99C506.355 397.987 506.358 397.982 506.363 397.975C506.368 397.969 506.372 397.965 506.375 397.962L507.656 399.499C508.081 399.144 508.295 398.663 508.351 398.157L506.364 397.936ZM506.568 397.836C506.495 397.873 506.452 397.877 506.43 397.877V399.877C506.798 399.877 507.145 399.784 507.463 399.625L506.568 397.836ZM506.43 397.877H506.283V399.877H506.43V397.877ZM506.407 397.885C506.397 397.883 506.393 397.882 506.393 397.882C506.394 397.882 506.398 397.884 506.403 397.887C506.409 397.89 506.413 397.893 506.417 397.895C506.42 397.898 506.42 397.898 506.417 397.895L504.88 399.175C505.211 399.572 505.656 399.806 506.159 399.869L506.407 397.885ZM506.436 397.919L492.13 379.609L490.554 380.84L504.86 399.151L506.436 397.919ZM490.554 379.609L476.247 397.919L477.823 399.151L492.13 380.84L490.554 379.609ZM476.267 397.895C476.264 397.898 476.264 397.898 476.267 397.895C476.27 397.893 476.275 397.89 476.28 397.887C476.286 397.884 476.289 397.882 476.29 397.882C476.291 397.882 476.287 397.883 476.276 397.885L476.524 399.869C477.027 399.806 477.473 399.572 477.803 399.175L476.267 397.895ZM476.4 397.877H476.254V399.877H476.4V397.877ZM476.254 397.877C476.231 397.877 476.188 397.873 476.115 397.836L475.221 399.625C475.538 399.784 475.886 399.877 476.254 399.877V397.877ZM476.308 397.962C476.311 397.965 476.316 397.969 476.321 397.975C476.326 397.982 476.329 397.987 476.33 397.99C476.334 397.997 476.325 397.984 476.32 397.936L474.332 398.157C474.388 398.663 474.602 399.144 475.028 399.499L476.308 397.962ZM476.326 398.047V397.949H474.326V398.047H476.326ZM476.326 397.949C476.326 397.925 476.329 397.905 476.354 397.869L474.689 396.76C474.453 397.114 474.326 397.518 474.326 397.949H476.326ZM476.309 397.931L490.909 379.278L489.334 378.046L474.734 396.698L476.309 397.931ZM490.909 378.046L476.309 359.393L474.734 360.626L489.334 379.278L490.909 378.046ZM476.354 359.455C476.329 359.419 476.326 359.399 476.326 359.375H474.326C474.326 359.807 474.453 360.21 474.689 360.564L476.354 359.455ZM476.326 359.375V359.229H474.326V359.375H476.326ZM476.318 359.353C476.32 359.342 476.321 359.338 476.321 359.339C476.321 359.34 476.319 359.343 476.317 359.349C476.314 359.354 476.31 359.359 476.308 359.362C476.305 359.365 476.305 359.365 476.308 359.362L475.028 357.826C474.631 358.156 474.397 358.601 474.334 359.104L476.318 359.353ZM476.115 359.488C476.188 359.452 476.231 359.447 476.254 359.447V357.447C475.886 357.447 475.538 357.541 475.221 357.699L476.115 359.488ZM476.254 359.447H476.4V357.447H476.254V359.447ZM476.276 359.44C476.287 359.441 476.291 359.442 476.29 359.442C476.289 359.442 476.286 359.44 476.28 359.438C476.275 359.435 476.27 359.431 476.267 359.429C476.264 359.426 476.264 359.426 476.267 359.429L477.803 358.149C477.473 357.752 477.027 357.518 476.524 357.455L476.276 359.44ZM476.247 359.405L490.554 377.715L492.13 376.484L477.823 358.173L476.247 359.405ZM492.13 377.715L506.436 359.405L504.86 358.173L490.554 376.484L492.13 377.715ZM506.417 359.429C506.42 359.426 506.42 359.426 506.417 359.429C506.413 359.431 506.409 359.435 506.403 359.438C506.398 359.44 506.394 359.442 506.393 359.442C506.393 359.442 506.397 359.441 506.407 359.44L506.159 357.455C505.656 357.518 505.211 357.752 504.88 358.149L506.417 359.429ZM506.283 359.447H506.43V357.447H506.283V359.447ZM506.43 359.447C506.452 359.447 506.495 359.452 506.568 359.488L507.463 357.699C507.145 357.541 506.798 357.447 506.43 357.447V359.447ZM506.375 359.362C506.379 359.365 506.378 359.365 506.376 359.362C506.373 359.359 506.37 359.354 506.367 359.349C506.364 359.343 506.363 359.34 506.363 359.339C506.362 359.338 506.364 359.342 506.365 359.353L508.35 359.104C508.287 358.601 508.053 358.156 507.656 357.826L506.375 359.362ZM506.357 359.229V359.375H508.357V359.229H506.357ZM506.357 359.375C506.357 359.399 506.354 359.419 506.33 359.455L507.994 360.564C508.23 360.21 508.357 359.807 508.357 359.375H506.357ZM506.375 359.393L491.775 378.046L493.35 379.278L507.95 360.626L506.375 359.393ZM653.451 396.436V397.436H653.484L653.518 397.433L653.451 396.436ZM654.867 396.191L655.142 397.153L655.17 397.145L655.198 397.135L654.867 396.191ZM662.045 389.307L661.159 388.843L661.153 388.854L661.147 388.866L662.045 389.307ZM664.828 378.418L665.828 378.427L665.828 378.396L665.827 378.365L664.828 378.418ZM664.73 376.562L665.729 376.51L665.728 376.489L665.726 376.468L664.73 376.562ZM661.312 366.65L660.458 367.17L660.471 367.191L660.485 367.212L661.312 366.65ZM653.5 360.889L653.661 359.902L653.581 359.889H653.5V360.889ZM653.646 358.936L653.811 357.949L653.729 357.936H653.646V358.936ZM662.924 365.625L662.066 366.138L662.083 366.167L662.101 366.194L662.924 365.625ZM666.684 376.416L667.682 376.367L667.681 376.345L667.679 376.322L666.684 376.416ZM666.781 378.418L667.781 378.426L667.781 378.398L667.78 378.369L666.781 378.418ZM663.803 390.186L662.916 389.723L662.911 389.734L662.905 389.744L663.803 390.186ZM655.453 398.047L655.754 399L655.77 398.996L655.785 398.99L655.453 398.047ZM653.549 398.389V399.389H653.574L653.599 399.387L653.549 398.389ZM639.34 359.889C639.042 359.889 638.766 359.901 638.532 359.936C638.416 359.954 638.283 359.981 638.152 360.026C638.035 360.067 637.834 360.15 637.656 360.328L639.07 361.742C639.001 361.812 638.935 361.853 638.894 361.876C638.852 361.899 638.82 361.911 638.806 361.916C638.781 361.925 638.783 361.921 638.829 361.914C638.921 361.9 639.084 361.889 639.34 361.889V359.889ZM637.656 360.328C637.478 360.506 637.395 360.707 637.354 360.824C637.309 360.955 637.282 361.088 637.264 361.204C637.229 361.438 637.217 361.714 637.217 362.012H639.217C639.217 361.756 639.229 361.593 639.242 361.501C639.249 361.455 639.253 361.453 639.244 361.478C639.239 361.492 639.227 361.524 639.204 361.566C639.182 361.607 639.14 361.673 639.07 361.742L637.656 360.328ZM637.217 362.012V395.312H639.217V362.012H637.217ZM637.217 395.312C637.217 395.61 637.229 395.886 637.264 396.12C637.282 396.237 637.309 396.369 637.354 396.5C637.395 396.617 637.478 396.818 637.656 396.996L639.07 395.582C639.14 395.651 639.182 395.717 639.204 395.758C639.227 395.8 639.239 395.832 639.244 395.846C639.253 395.871 639.249 395.869 639.242 395.823C639.229 395.732 639.217 395.568 639.217 395.312H637.217ZM637.656 396.996C637.834 397.174 638.035 397.258 638.152 397.298C638.283 397.344 638.416 397.37 638.532 397.388C638.766 397.423 639.042 397.436 639.34 397.436V395.436C639.084 395.436 638.921 395.424 638.829 395.41C638.783 395.403 638.781 395.399 638.806 395.408C638.82 395.413 638.852 395.425 638.894 395.448C638.935 395.471 639.001 395.512 639.07 395.582L637.656 396.996ZM639.34 397.436H653.451V395.436H639.34V397.436ZM653.518 397.433C654.074 397.396 654.616 397.303 655.142 397.153L654.592 395.23C654.207 395.34 653.805 395.41 653.385 395.438L653.518 397.433ZM655.198 397.135C658.556 395.956 661.127 393.446 662.943 389.747L661.147 388.866C659.512 392.198 657.299 394.278 654.536 395.248L655.198 397.135ZM662.931 389.77C664.824 386.153 665.794 382.368 665.828 378.427L663.828 378.409C663.797 382.02 662.911 385.494 661.159 388.843L662.931 389.77ZM665.827 378.365L665.729 376.51L663.732 376.615L663.83 378.471L665.827 378.365ZM665.726 376.468C665.354 372.543 664.165 369.075 662.14 366.089L660.485 367.212C662.301 369.89 663.391 373.03 663.735 376.657L665.726 376.468ZM662.167 366.131C660.031 362.616 657.198 360.479 653.661 359.902L653.339 361.876C656.182 362.34 658.558 364.044 660.458 367.17L662.167 366.131ZM653.5 359.889H639.34V361.889H653.5V359.889ZM653.482 359.922C657.062 360.519 659.917 362.548 662.066 366.138L663.782 365.112C661.373 361.085 658.044 358.655 653.811 357.949L653.482 359.922ZM662.101 366.194C664.109 369.097 665.312 372.526 665.688 376.51L667.679 376.322C667.274 372.038 665.971 368.273 663.746 365.056L662.101 366.194ZM665.685 376.465L665.782 378.467L667.78 378.369L667.682 376.367L665.685 376.465ZM665.781 378.41C665.75 382.348 664.798 386.116 662.916 389.723L664.689 390.648C666.713 386.768 667.747 382.691 667.781 378.426L665.781 378.41ZM662.905 389.744C661.048 393.52 658.449 395.934 655.122 397.103L655.785 398.99C659.684 397.62 662.651 394.794 664.7 390.627L662.905 389.744ZM655.152 397.093C654.615 397.263 654.065 397.362 653.499 397.39L653.599 399.387C654.335 399.351 655.054 399.222 655.754 399L655.152 397.093ZM653.549 397.389H639.34V399.389H653.549V397.389ZM639.34 397.389C638.387 397.389 637.922 397.168 637.703 396.949L636.289 398.363C637.046 399.121 638.144 399.389 639.34 399.389V397.389ZM637.703 396.949C637.484 396.73 637.264 396.265 637.264 395.312H635.264C635.264 396.508 635.532 397.606 636.289 398.363L637.703 396.949ZM637.264 395.312V362.012H635.264V395.312H637.264ZM637.264 362.012C637.264 361.059 637.484 360.594 637.703 360.375L636.289 358.961C635.532 359.718 635.264 360.816 635.264 362.012H637.264ZM637.703 360.375C637.922 360.156 638.387 359.936 639.34 359.936V357.936C638.144 357.936 637.046 358.203 636.289 358.961L637.703 360.375ZM639.34 359.936H653.646V357.936H639.34V359.936ZM728.695 384.521V383.521H728.034L727.775 384.13L728.695 384.521ZM722.543 398.975L723.462 399.369L723.463 399.366L722.543 398.975ZM722.006 399.463L722.248 400.433L722.304 400.419L722.357 400.399L722.006 399.463ZM721.273 399.463L720.88 400.382L720.953 400.414L721.031 400.433L721.273 399.463ZM720.785 398.926L721.721 398.575L721.703 398.526L721.68 398.479L720.785 398.926ZM720.736 398.193L719.816 397.802L719.8 397.839L719.788 397.877L720.736 398.193ZM737.289 359.229L738.209 359.62L738.225 359.583L738.238 359.545L737.289 359.229ZM737.875 358.496L738.226 359.432L738.275 359.414L738.322 359.391L737.875 358.496ZM738.656 358.496L738.209 359.391L738.256 359.414L738.305 359.432L738.656 358.496ZM739.242 359.229L738.294 359.545L738.306 359.583L738.322 359.62L739.242 359.229ZM755.795 398.193L756.744 397.877L756.731 397.839L756.715 397.802L755.795 398.193ZM755.795 398.926L756.689 399.373L756.738 399.275L756.765 399.168L755.795 398.926ZM755.258 399.463L755.574 400.412L755.614 400.398L755.652 400.382L755.258 399.463ZM754.525 399.463L754.174 400.399L754.228 400.419L754.283 400.433L754.525 399.463ZM753.988 398.975L753.068 399.366L753.069 399.369L753.988 398.975ZM747.836 384.521L748.756 384.13L748.497 383.521H747.836V384.521ZM747.006 382.568V383.568H748.516L747.926 382.178L747.006 382.568ZM738.266 361.963L739.186 361.572L738.266 359.402L737.345 361.572L738.266 361.963ZM729.525 382.568L728.605 382.178L728.015 383.568H729.525V382.568ZM727.775 384.13L721.623 398.583L723.463 399.366L729.615 384.913L727.775 384.13ZM721.624 398.581C721.626 398.575 721.631 398.566 721.638 398.555C721.646 398.544 721.655 398.535 721.663 398.528C721.68 398.512 721.684 398.516 721.655 398.527L722.357 400.399C722.839 400.219 723.243 399.879 723.462 399.369L721.624 398.581ZM721.763 398.493C721.71 398.506 721.661 398.512 721.615 398.512V400.512C721.83 400.512 722.041 400.485 722.248 400.433L721.763 398.493ZM721.615 398.512C721.621 398.512 721.616 398.512 721.598 398.51C721.58 398.507 721.553 398.502 721.516 398.493L721.031 400.433C721.213 400.479 721.412 400.512 721.615 400.512V398.512ZM721.667 398.544C721.673 398.546 721.682 398.551 721.693 398.558C721.704 398.566 721.713 398.575 721.72 398.583C721.736 398.6 721.732 398.604 721.721 398.575L719.849 399.277C720.029 399.758 720.369 400.163 720.88 400.382L721.667 398.544ZM721.68 398.479C721.677 398.473 721.679 398.477 721.682 398.488C721.685 398.5 721.688 398.516 721.688 398.535H719.688C719.688 398.838 719.764 399.12 719.891 399.373L721.68 398.479ZM721.688 398.535C721.688 398.511 721.689 398.498 721.69 398.493C721.69 398.489 721.69 398.495 721.685 398.51L719.788 397.877C719.713 398.1 719.688 398.325 719.688 398.535H721.688ZM721.657 398.584L738.209 359.62L736.369 358.838L719.816 397.802L721.657 398.584ZM738.238 359.545C738.277 359.428 738.309 359.383 738.314 359.377C738.315 359.376 738.309 359.384 738.292 359.397C738.275 359.41 738.252 359.423 738.226 359.432L737.524 357.56C736.866 357.806 736.519 358.377 736.34 358.912L738.238 359.545ZM738.322 359.391C738.328 359.388 738.324 359.39 738.313 359.393C738.301 359.396 738.285 359.398 738.266 359.398V357.398C737.963 357.398 737.68 357.475 737.428 357.602L738.322 359.391ZM738.266 359.398C738.246 359.398 738.23 359.396 738.218 359.393C738.207 359.39 738.204 359.388 738.209 359.391L739.103 357.602C738.851 357.475 738.569 357.398 738.266 357.398V359.398ZM738.305 359.432C738.279 359.423 738.257 359.41 738.239 359.397C738.223 359.384 738.216 359.376 738.217 359.377C738.222 359.383 738.255 359.428 738.294 359.545L740.191 358.912C740.012 358.377 739.665 357.806 739.007 357.56L738.305 359.432ZM738.322 359.62L754.875 398.584L756.715 397.802L740.163 358.838L738.322 359.62ZM754.846 398.51C754.841 398.495 754.841 398.489 754.842 398.493C754.842 398.498 754.844 398.511 754.844 398.535H756.844C756.844 398.325 756.818 398.1 756.744 397.877L754.846 398.51ZM754.844 398.535C754.844 398.581 754.838 398.63 754.825 398.683L756.765 399.168C756.817 398.961 756.844 398.75 756.844 398.535H754.844ZM754.9 398.479C754.876 398.527 754.859 398.545 754.856 398.548C754.854 398.55 754.855 398.549 754.857 398.547C754.86 398.546 754.862 398.544 754.864 398.544L755.652 400.382C756.134 400.175 756.473 399.806 756.689 399.373L754.9 398.479ZM754.942 398.514C754.956 398.509 754.962 398.509 754.958 398.51C754.953 398.51 754.94 398.512 754.916 398.512V400.512C755.127 400.512 755.352 400.486 755.574 400.412L754.942 398.514ZM754.916 398.512C754.87 398.512 754.821 398.506 754.768 398.493L754.283 400.433C754.49 400.485 754.702 400.512 754.916 400.512V398.512ZM754.877 398.527C754.847 398.516 754.851 398.512 754.868 398.528C754.877 398.535 754.885 398.544 754.893 398.555C754.9 398.566 754.905 398.575 754.907 398.581L753.069 399.369C753.288 399.879 753.693 400.219 754.174 400.399L754.877 398.527ZM754.908 398.583L748.756 384.13L746.916 384.913L753.068 399.366L754.908 398.583ZM747.836 383.521H728.695V385.521H747.836V383.521ZM747.926 382.178L739.186 361.572L737.345 362.353L746.085 382.959L747.926 382.178ZM737.345 361.572L728.605 382.178L730.446 382.959L739.186 362.353L737.345 361.572ZM729.525 383.568H747.006V381.568H729.525V383.568ZM823.715 377.051H824.715V376.701L824.497 376.428L823.715 377.051ZM809.994 359.814L810.777 359.192L810.77 359.183L810.762 359.174L809.994 359.814ZM810.043 358.496L809.336 357.789L809.309 357.816L809.284 357.845L810.043 358.496ZM811.508 358.496L812.287 357.87L812.232 357.801L812.166 357.744L811.508 358.496ZM824.691 374.902L823.912 375.529L824.689 376.495L825.469 375.532L824.691 374.902ZM837.973 358.496L837.373 357.696L837.273 357.771L837.195 357.867L837.973 358.496ZM838.168 358.35L838.768 359.15L838.78 359.14L838.793 359.13L838.168 358.35ZM839.438 358.496L840.197 357.845L840.15 357.791L840.096 357.744L839.438 358.496ZM839.486 359.814L838.718 359.174L838.712 359.182L838.706 359.189L839.486 359.814ZM825.668 377.051L824.888 376.425L824.668 376.699V377.051H825.668ZM824.497 376.428L810.777 359.192L809.212 360.437L822.932 377.674L824.497 376.428ZM810.762 359.174C810.752 359.162 810.747 359.154 810.745 359.15C810.743 359.147 810.743 359.147 810.744 359.15C810.746 359.154 810.747 359.159 810.749 359.165C810.75 359.172 810.75 359.177 810.75 359.18H808.75C808.75 359.669 808.932 360.102 809.226 360.455L810.762 359.174ZM810.75 359.18C810.75 359.195 810.748 359.208 810.746 359.218C810.744 359.228 810.742 359.233 810.742 359.232C810.744 359.228 810.757 359.199 810.802 359.147L809.284 357.845C808.983 358.196 808.75 358.646 808.75 359.18H810.75ZM810.75 359.203C810.797 359.156 810.822 359.145 810.82 359.146C810.819 359.146 810.813 359.149 810.803 359.151C810.794 359.153 810.784 359.154 810.775 359.154V357.154C810.19 357.154 809.704 357.421 809.336 357.789L810.75 359.203ZM810.775 359.154C810.719 359.154 810.693 359.14 810.707 359.146C810.723 359.154 810.771 359.18 810.849 359.249L812.166 357.744C811.815 357.436 811.344 357.154 810.775 357.154V359.154ZM810.728 359.122L823.912 375.529L825.471 374.276L812.287 357.87L810.728 359.122ZM825.469 375.532L838.75 359.125L837.195 357.867L823.914 374.273L825.469 375.532ZM838.573 359.296L838.768 359.15L837.568 357.55L837.373 357.696L838.573 359.296ZM838.793 359.13C838.797 359.127 838.788 359.135 838.766 359.143C838.743 359.151 838.721 359.154 838.705 359.154V357.154C838.267 357.154 837.871 357.307 837.543 357.569L838.793 359.13ZM838.705 359.154C838.649 359.154 838.623 359.14 838.636 359.146C838.653 359.154 838.701 359.18 838.779 359.249L840.096 357.744C839.744 357.436 839.274 357.154 838.705 357.154V359.154ZM838.678 359.147C838.723 359.199 838.737 359.228 838.738 359.232C838.739 359.233 838.737 359.228 838.734 359.218C838.732 359.208 838.73 359.195 838.73 359.18H840.73C840.73 358.646 840.497 358.196 840.197 357.845L838.678 359.147ZM838.73 359.18C838.73 359.177 838.731 359.172 838.732 359.165C838.733 359.159 838.735 359.154 838.736 359.15C838.737 359.147 838.738 359.147 838.736 359.15C838.733 359.154 838.728 359.162 838.718 359.174L840.255 360.455C840.549 360.102 840.73 359.669 840.73 359.18H838.73ZM838.706 359.189L824.888 376.425L826.448 377.676L840.267 360.44L838.706 359.189ZM824.668 377.051V398.145H826.668V377.051H824.668ZM824.668 398.145C824.668 398.147 824.668 398.144 824.669 398.138C824.67 398.131 824.673 398.124 824.676 398.117C824.677 398.114 824.678 398.111 824.679 398.109C824.68 398.107 824.681 398.106 824.681 398.106C824.681 398.106 824.677 398.112 824.668 398.121L826.082 399.535C826.452 399.165 826.668 398.688 826.668 398.145H824.668ZM824.668 398.121C824.658 398.13 824.653 398.134 824.653 398.134C824.653 398.134 824.654 398.134 824.656 398.132C824.658 398.131 824.66 398.13 824.664 398.129C824.671 398.126 824.678 398.124 824.684 398.122C824.691 398.121 824.694 398.121 824.691 398.121V400.121C825.234 400.121 825.712 399.905 826.082 399.535L824.668 398.121ZM824.691 398.121C824.689 398.121 824.692 398.121 824.698 398.122C824.705 398.124 824.712 398.126 824.719 398.129C824.722 398.13 824.725 398.131 824.727 398.132C824.729 398.134 824.73 398.134 824.73 398.134C824.729 398.134 824.724 398.13 824.715 398.121L823.301 399.535C823.671 399.905 824.148 400.121 824.691 400.121V398.121ZM824.715 398.121C824.705 398.112 824.702 398.106 824.702 398.106C824.702 398.106 824.702 398.107 824.703 398.109C824.705 398.111 824.706 398.114 824.707 398.117C824.71 398.124 824.712 398.131 824.714 398.138C824.715 398.144 824.715 398.147 824.715 398.145H822.715C822.715 398.688 822.93 399.165 823.301 399.535L824.715 398.121ZM824.715 398.145V377.051H822.715V398.145H824.715Z" fill="white"/>
<path d="M25 485.562V712.75C25 714.417 24.375 715.875 23.125 717.125C21.875 718.375 20.4167 719 18.75 719C17.0833 719 15.625 718.375 14.375 717.125C13.125 715.875 12.5 714.417 12.5 712.75V462.125C12.5 460.458 13.125 459 14.375 457.75C15.625 456.5 17.0833 455.875 18.75 455.875C20.4167 455.875 21.875 456.5 23.125 457.75C23.9583 458.583 24.8958 460.042 25.9375 462.125L156.875 689.312V462.125C156.875 460.458 157.5 459 158.75 457.75C160 456.5 161.458 455.875 163.125 455.875C164.792 455.875 166.25 456.5 167.5 457.75C168.75 459 169.375 460.458 169.375 462.125V712.75C169.375 714.417 168.75 715.875 167.5 717.125C166.25 718.375 164.792 719 163.125 719C161.458 719 160 718.375 158.75 717.125C157.917 716.292 156.979 714.833 155.938 712.75L25 485.562ZM277.25 471.5V701.188H306.312C307.979 701.188 309.438 701.812 310.688 703.062C311.938 704.312 312.562 705.771 312.562 707.438C312.562 709.104 311.938 710.562 310.688 711.812C309.438 713.062 307.979 713.688 306.312 713.688H235.375C233.708 713.688 232.25 713.062 231 711.812C229.75 710.562 229.125 709.104 229.125 707.438C229.125 705.771 229.75 704.312 231 703.062C232.25 701.812 233.708 701.188 235.375 701.188H264.438V471.5H235.375C233.708 471.5 232.25 470.875 231 469.625C229.75 468.375 229.125 466.917 229.125 465.25C229.125 463.583 229.75 462.125 231 460.875C232.25 459.625 233.708 459 235.375 459H306.312C307.979 459 309.438 459.625 310.688 460.875C311.938 462.125 312.562 463.583 312.562 465.25C312.562 466.917 311.938 468.375 310.688 469.625C309.438 470.875 307.979 471.5 306.312 471.5H277.25ZM567.312 653.688C565.021 661.188 559.812 670.562 551.688 681.812C534.188 705.979 508.667 718.062 475.125 718.062C445.542 718.062 420.958 704.938 401.375 678.688C382 652.438 372.312 621.604 372.312 586.188C372.312 550.562 382 519.729 401.375 493.688C420.958 467.438 445.542 454.312 475.125 454.312C508.875 454.312 534.5 466.292 552 490.25C560.125 501.708 565.229 511.083 567.312 518.375C568.146 520.875 568.562 523.062 568.562 524.938C568.562 528.271 567.312 530.458 564.812 531.5C563.979 531.917 563.25 532.125 562.625 532.125C559.708 532.125 557.521 529.312 556.062 523.688C554.188 517.021 549.708 508.688 542.625 498.688C527.208 477.438 504.708 466.812 475.125 466.812C449.708 466.812 428.25 478.583 410.75 502.125C393.458 525.458 384.812 553.479 384.812 586.188C384.812 618.688 393.458 646.708 410.75 670.25C428.25 693.792 449.708 705.562 475.125 705.562C504.5 705.562 526.896 694.833 542.312 673.375C549.604 663.375 554.188 655.042 556.062 648.375C557.521 642.958 559.708 640.25 562.625 640.25C563.458 640.25 564.188 640.354 564.812 640.562C567.312 641.396 568.562 643.583 568.562 647.125C568.562 649 568.146 651.188 567.312 653.688ZM807.062 712.125C807.062 714 806.438 715.562 805.188 716.812C803.938 717.854 802.479 718.375 800.812 718.375C799.146 718.375 797.688 717.854 796.438 716.812C795.188 715.562 794.562 714 794.562 712.125V590.875H622.062V712.125C622.062 714 621.438 715.562 620.188 716.812C618.938 717.854 617.479 718.375 615.812 718.375C614.146 718.375 612.688 717.854 611.438 716.812C610.188 715.562 609.562 714 609.562 712.125V460.875C609.562 459.208 610.188 457.75 611.438 456.5C612.688 455.25 614.146 454.625 615.812 454.625C617.479 454.625 618.938 455.25 620.188 456.5C621.438 457.75 622.062 459.208 622.062 460.875V578.062H794.562V460.875C794.562 459.208 795.188 457.75 796.438 456.5C797.688 455.25 799.146 454.625 800.812 454.625C802.479 454.625 803.938 455.25 805.188 456.5C806.438 457.75 807.062 459.208 807.062 460.875V712.125ZM914.938 471.5V701.188H944C945.667 701.188 947.125 701.812 948.375 703.062C949.625 704.312 950.25 705.771 950.25 707.438C950.25 709.104 949.625 710.562 948.375 711.812C947.125 713.062 945.667 713.688 944 713.688H873.062C871.396 713.688 869.938 713.062 868.688 711.812C867.438 710.562 866.812 709.104 866.812 707.438C866.812 705.771 867.438 704.312 868.688 703.062C869.938 701.812 871.396 701.188 873.062 701.188H902.125V471.5H873.062C871.396 471.5 869.938 470.875 868.688 469.625C867.438 468.375 866.812 466.917 866.812 465.25C866.812 463.583 867.438 462.125 868.688 460.875C869.938 459.625 871.396 459 873.062 459H944C945.667 459 947.125 459.625 948.375 460.875C949.625 462.125 950.25 463.583 950.25 465.25C950.25 466.917 949.625 468.375 948.375 469.625C947.125 470.875 945.667 471.5 944 471.5H914.938Z" fill="white"/>
<path d="M25 485.562L26.7328 484.564L23 478.087V485.562H25ZM23.125 457.75L21.7108 459.164L23.125 457.75ZM25.9375 462.125L24.1486 463.019L24.1751 463.072L24.2047 463.124L25.9375 462.125ZM156.875 689.312L155.142 690.311L158.875 696.788V689.312H156.875ZM158.75 717.125L160.164 715.711L158.75 717.125ZM155.938 712.75L157.726 711.856L157.7 711.803L157.67 711.751L155.938 712.75ZM23 485.562V712.75H27V485.562H23ZM23 712.75C23 713.852 22.611 714.811 21.7108 715.711L24.5392 718.539C26.139 716.939 27 714.982 27 712.75H23ZM21.7108 715.711C20.8106 716.611 19.8516 717 18.75 717V721C20.9818 721 22.9394 720.139 24.5392 718.539L21.7108 715.711ZM18.75 717C17.6484 717 16.6894 716.611 15.7892 715.711L12.9608 718.539C14.5606 720.139 16.5182 721 18.75 721V717ZM15.7892 715.711C14.889 714.811 14.5 713.852 14.5 712.75H10.5C10.5 714.982 11.361 716.939 12.9608 718.539L15.7892 715.711ZM14.5 712.75V462.125H10.5V712.75H14.5ZM14.5 462.125C14.5 461.023 14.889 460.064 15.7892 459.164L12.9608 456.336C11.361 457.936 10.5 459.893 10.5 462.125H14.5ZM15.7892 459.164C16.6894 458.264 17.6484 457.875 18.75 457.875V453.875C16.5182 453.875 14.5606 454.736 12.9608 456.336L15.7892 459.164ZM18.75 457.875C19.8516 457.875 20.8106 458.264 21.7108 459.164L24.5392 456.336C22.9394 454.736 20.9818 453.875 18.75 453.875V457.875ZM21.7108 459.164C22.3072 459.761 23.1284 460.979 24.1486 463.019L27.7264 461.231C26.6633 459.104 25.6095 457.406 24.5392 456.336L21.7108 459.164ZM24.2047 463.124L155.142 690.311L158.608 688.314L27.6703 461.126L24.2047 463.124ZM158.875 689.312V462.125H154.875V689.312H158.875ZM158.875 462.125C158.875 461.023 159.264 460.064 160.164 459.164L157.336 456.336C155.736 457.936 154.875 459.893 154.875 462.125H158.875ZM160.164 459.164C161.064 458.264 162.023 457.875 163.125 457.875V453.875C160.893 453.875 158.936 454.736 157.336 456.336L160.164 459.164ZM163.125 457.875C164.227 457.875 165.186 458.264 166.086 459.164L168.914 456.336C167.314 454.736 165.357 453.875 163.125 453.875V457.875ZM166.086 459.164C166.986 460.064 167.375 461.023 167.375 462.125H171.375C171.375 459.893 170.514 457.936 168.914 456.336L166.086 459.164ZM167.375 462.125V712.75H171.375V462.125H167.375ZM167.375 712.75C167.375 713.852 166.986 714.811 166.086 715.711L168.914 718.539C170.514 716.939 171.375 714.982 171.375 712.75H167.375ZM166.086 715.711C165.186 716.611 164.227 717 163.125 717V721C165.357 721 167.314 720.139 168.914 718.539L166.086 715.711ZM163.125 717C162.023 717 161.064 716.611 160.164 715.711L157.336 718.539C158.936 720.139 160.893 721 163.125 721V717ZM160.164 715.711C159.568 715.114 158.747 713.896 157.726 711.856L154.149 713.644C155.212 715.771 156.266 717.469 157.336 718.539L160.164 715.711ZM157.67 711.751L26.7328 484.564L23.2672 486.561L154.205 713.749L157.67 711.751ZM277.25 471.5V469.5H275.25V471.5H277.25ZM277.25 701.188H275.25V703.188H277.25V701.188ZM264.438 701.188V703.188H266.438V701.188H264.438ZM264.438 471.5H266.438V469.5H264.438V471.5ZM275.25 471.5V701.188H279.25V471.5H275.25ZM277.25 703.188H306.312V699.188H277.25V703.188ZM306.312 703.188C307.414 703.188 308.373 703.577 309.273 704.477L312.102 701.648C310.502 700.048 308.544 699.188 306.312 699.188V703.188ZM309.273 704.477C310.173 705.377 310.562 706.336 310.562 707.438H314.562C314.562 705.206 313.702 703.248 312.102 701.648L309.273 704.477ZM310.562 707.438C310.562 708.539 310.173 709.498 309.273 710.398L312.102 713.227C313.702 711.627 314.562 709.669 314.562 707.438H310.562ZM309.273 710.398C308.373 711.298 307.414 711.688 306.312 711.688V715.688C308.544 715.688 310.502 714.827 312.102 713.227L309.273 710.398ZM306.312 711.688H235.375V715.688H306.312V711.688ZM235.375 711.688C234.273 711.688 233.314 711.298 232.414 710.398L229.586 713.227C231.186 714.827 233.143 715.688 235.375 715.688V711.688ZM232.414 710.398C231.514 709.498 231.125 708.539 231.125 707.438H227.125C227.125 709.669 227.986 711.627 229.586 713.227L232.414 710.398ZM231.125 707.438C231.125 706.336 231.514 705.377 232.414 704.477L229.586 701.648C227.986 703.248 227.125 705.206 227.125 707.438H231.125ZM232.414 704.477C233.314 703.577 234.273 703.188 235.375 703.188V699.188C233.143 699.188 231.186 700.048 229.586 701.648L232.414 704.477ZM235.375 703.188H264.438V699.188H235.375V703.188ZM266.438 701.188V471.5H262.438V701.188H266.438ZM264.438 469.5H235.375V473.5H264.438V469.5ZM235.375 469.5C234.273 469.5 233.314 469.111 232.414 468.211L229.586 471.039C231.186 472.639 233.143 473.5 235.375 473.5V469.5ZM232.414 468.211C231.514 467.311 231.125 466.352 231.125 465.25H227.125C227.125 467.482 227.986 469.439 229.586 471.039L232.414 468.211ZM231.125 465.25C231.125 464.148 231.514 463.189 232.414 462.289L229.586 459.461C227.986 461.061 227.125 463.018 227.125 465.25H231.125ZM232.414 462.289C233.314 461.389 234.273 461 235.375 461V457C233.143 457 231.186 457.861 229.586 459.461L232.414 462.289ZM235.375 461H306.312V457H235.375V461ZM306.312 461C307.414 461 308.373 461.389 309.273 462.289L312.102 459.461C310.502 457.861 308.544 457 306.312 457V461ZM309.273 462.289C310.173 463.189 310.562 464.148 310.562 465.25H314.562C314.562 463.018 313.702 461.061 312.102 459.461L309.273 462.289ZM310.562 465.25C310.562 466.352 310.173 467.311 309.273 468.211L312.102 471.039C313.702 469.439 314.562 467.482 314.562 465.25H310.562ZM309.273 468.211C308.373 469.111 307.414 469.5 306.312 469.5V473.5C308.544 473.5 310.502 472.639 312.102 471.039L309.273 468.211ZM306.312 469.5H277.25V473.5H306.312V469.5ZM567.312 653.688L565.415 653.055L565.407 653.079L565.4 653.103L567.312 653.688ZM551.688 681.812L553.307 682.986L553.309 682.983L551.688 681.812ZM401.375 678.688L399.766 679.875L399.772 679.883L401.375 678.688ZM401.375 493.688L399.772 492.492L399.77 492.494L401.375 493.688ZM552 490.25L553.631 489.093L553.623 489.082L553.615 489.07L552 490.25ZM567.312 518.375L565.389 518.924L565.401 518.966L565.415 519.007L567.312 518.375ZM564.812 531.5L564.043 529.654L563.98 529.68L563.918 529.711L564.812 531.5ZM556.062 523.688L557.998 523.186L557.993 523.166L557.988 523.146L556.062 523.688ZM542.625 498.688L544.257 497.531L544.25 497.522L544.244 497.513L542.625 498.688ZM410.75 502.125L409.145 500.932L409.143 500.934L410.75 502.125ZM410.75 670.25L409.138 671.434L409.145 671.443L410.75 670.25ZM542.312 673.375L540.696 672.197L540.688 672.208L542.312 673.375ZM556.062 648.375L557.988 648.916L557.991 648.906L557.994 648.895L556.062 648.375ZM564.812 640.562L564.18 642.46L564.812 640.562ZM565.4 653.103C563.204 660.29 558.145 669.455 550.066 680.642L553.309 682.983C561.48 671.67 566.838 662.085 569.225 654.272L565.4 653.103ZM550.068 680.639C532.995 704.217 508.117 716.062 475.125 716.062V720.062C509.216 720.062 535.38 707.742 553.307 682.986L550.068 680.639ZM475.125 716.062C446.247 716.062 422.23 703.298 402.978 677.492L399.772 679.883C419.686 706.577 444.836 720.062 475.125 720.062V716.062ZM402.984 677.5C383.885 651.624 374.312 621.215 374.312 586.188H370.312C370.312 621.993 380.115 653.251 399.766 679.875L402.984 677.5ZM374.312 586.188C374.312 550.948 383.887 520.544 402.98 494.881L399.77 492.494C380.113 518.914 370.312 550.177 370.312 586.188H374.312ZM402.978 494.883C422.23 469.077 446.247 456.312 475.125 456.312V452.312C444.836 452.312 419.686 465.798 399.772 492.492L402.978 494.883ZM475.125 456.312C508.337 456.312 533.317 468.063 550.385 491.43L553.615 489.07C535.683 464.52 509.413 452.312 475.125 452.312V456.312ZM550.369 491.407C558.454 502.81 563.401 511.963 565.389 518.924L569.236 517.826C567.058 510.204 561.796 500.607 553.631 489.093L550.369 491.407ZM565.415 519.007C566.206 521.38 566.562 523.345 566.562 524.938H570.562C570.562 522.78 570.086 520.37 569.21 517.743L565.415 519.007ZM566.562 524.938C566.562 526.365 566.294 527.377 565.889 528.086C565.5 528.766 564.918 529.289 564.043 529.654L565.582 533.346C567.207 532.669 568.5 531.577 569.361 530.07C570.206 528.592 570.562 526.843 570.562 524.938H566.562ZM563.918 529.711C563.237 530.051 562.825 530.125 562.625 530.125V534.125C563.675 534.125 564.721 533.782 565.707 533.289L563.918 529.711ZM562.625 530.125C561.921 530.125 561.184 529.827 560.376 528.788C559.522 527.69 558.697 525.88 557.998 523.186L554.127 524.189C554.886 527.12 555.884 529.529 557.218 531.244C558.598 533.017 560.412 534.125 562.625 534.125V530.125ZM557.988 523.146C556.021 516.152 551.387 507.597 544.257 497.531L540.993 499.844C548.03 509.778 552.354 517.89 554.137 524.229L557.988 523.146ZM544.244 497.513C528.399 475.673 505.255 464.812 475.125 464.812V468.812C504.161 468.812 526.018 479.202 541.006 499.862L544.244 497.513ZM475.125 464.812C448.972 464.812 426.956 476.972 409.145 500.932L412.355 503.318C429.544 480.195 450.444 468.812 475.125 468.812V464.812ZM409.143 500.934C391.564 524.655 382.812 553.107 382.812 586.188H386.812C386.812 553.851 395.352 526.262 412.357 503.316L409.143 500.934ZM382.812 586.188C382.812 619.063 391.566 647.511 409.138 671.434L412.362 669.066C395.351 645.906 386.812 618.312 386.812 586.188H382.812ZM409.145 671.443C426.956 695.403 448.972 707.562 475.125 707.562V703.562C450.444 703.562 429.544 692.18 412.355 669.057L409.145 671.443ZM475.125 707.562C505.06 707.562 528.098 696.588 543.937 674.542L540.688 672.208C525.693 693.079 503.94 703.562 475.125 703.562V707.562ZM543.929 674.553C551.268 664.488 556.016 655.926 557.988 648.916L554.137 647.834C552.359 654.158 547.94 662.262 540.696 672.197L543.929 674.553ZM557.994 648.895C558.69 646.31 559.509 644.583 560.353 643.538C561.148 642.553 561.89 642.25 562.625 642.25V638.25C560.443 638.25 558.633 639.301 557.241 641.025C555.897 642.688 554.894 645.023 554.131 647.855L557.994 648.895ZM562.625 642.25C563.298 642.25 563.805 642.335 564.18 642.46L565.445 638.665C564.57 638.374 563.619 638.25 562.625 638.25V642.25ZM564.18 642.46C564.987 642.729 565.52 643.175 565.889 643.82C566.285 644.514 566.562 645.568 566.562 647.125H570.562C570.562 645.14 570.215 643.33 569.361 641.836C568.48 640.294 567.138 639.23 565.445 638.665L564.18 642.46ZM566.562 647.125C566.562 648.717 566.206 650.683 565.415 653.055L569.21 654.32C570.086 651.692 570.562 649.283 570.562 647.125H566.562ZM805.188 716.812L806.468 718.349L806.538 718.291L806.602 718.227L805.188 716.812ZM796.438 716.812L795.023 718.227L795.087 718.291L795.157 718.349L796.438 716.812ZM794.562 590.875H796.562V588.875H794.562V590.875ZM622.062 590.875V588.875H620.062V590.875H622.062ZM620.188 716.812L621.468 718.349L621.538 718.291L621.602 718.227L620.188 716.812ZM611.438 716.812L610.023 718.227L610.087 718.291L610.157 718.349L611.438 716.812ZM622.062 578.062H620.062V580.062H622.062V578.062ZM794.562 578.062V580.062H796.562V578.062H794.562ZM805.062 712.125C805.062 713.505 804.624 714.548 803.773 715.398L806.602 718.227C808.251 716.577 809.062 714.495 809.062 712.125H805.062ZM803.907 715.276C803.026 716.01 802.024 716.375 800.812 716.375V720.375C802.935 720.375 804.849 719.698 806.468 718.349L803.907 715.276ZM800.812 716.375C799.601 716.375 798.599 716.01 797.718 715.276L795.157 718.349C796.776 719.698 798.69 720.375 800.812 720.375V716.375ZM797.852 715.398C797.001 714.548 796.562 713.505 796.562 712.125H792.562C792.562 714.495 793.374 716.577 795.023 718.227L797.852 715.398ZM796.562 712.125V590.875H792.562V712.125H796.562ZM794.562 588.875H622.062V592.875H794.562V588.875ZM620.062 590.875V712.125H624.062V590.875H620.062ZM620.062 712.125C620.062 713.505 619.624 714.548 618.773 715.398L621.602 718.227C623.251 716.577 624.062 714.495 624.062 712.125H620.062ZM618.907 715.276C618.026 716.01 617.024 716.375 615.812 716.375V720.375C617.935 720.375 619.849 719.698 621.468 718.349L618.907 715.276ZM615.812 716.375C614.601 716.375 613.599 716.01 612.718 715.276L610.157 718.349C611.776 719.698 613.69 720.375 615.812 720.375V716.375ZM612.852 715.398C612.001 714.548 611.562 713.505 611.562 712.125H607.562C607.562 714.495 608.374 716.577 610.023 718.227L612.852 715.398ZM611.562 712.125V460.875H607.562V712.125H611.562ZM611.562 460.875C611.562 459.773 611.952 458.814 612.852 457.914L610.023 455.086C608.423 456.686 607.562 458.643 607.562 460.875H611.562ZM612.852 457.914C613.752 457.014 614.711 456.625 615.812 456.625V452.625C613.581 452.625 611.623 453.486 610.023 455.086L612.852 457.914ZM615.812 456.625C616.914 456.625 617.873 457.014 618.773 457.914L621.602 455.086C620.002 453.486 618.044 452.625 615.812 452.625V456.625ZM618.773 457.914C619.673 458.814 620.062 459.773 620.062 460.875H624.062C624.062 458.643 623.202 456.686 621.602 455.086L618.773 457.914ZM620.062 460.875V578.062H624.062V460.875H620.062ZM622.062 580.062H794.562V576.062H622.062V580.062ZM796.562 578.062V460.875H792.562V578.062H796.562ZM796.562 460.875C796.562 459.773 796.952 458.814 797.852 457.914L795.023 455.086C793.423 456.686 792.562 458.643 792.562 460.875H796.562ZM797.852 457.914C798.752 457.014 799.711 456.625 800.812 456.625V452.625C798.581 452.625 796.623 453.486 795.023 455.086L797.852 457.914ZM800.812 456.625C801.914 456.625 802.873 457.014 803.773 457.914L806.602 455.086C805.002 453.486 803.044 452.625 800.812 452.625V456.625ZM803.773 457.914C804.673 458.814 805.062 459.773 805.062 460.875H809.062C809.062 458.643 808.202 456.686 806.602 455.086L803.773 457.914ZM805.062 460.875V712.125H809.062V460.875H805.062ZM914.938 471.5V469.5H912.938V471.5H914.938ZM914.938 701.188H912.938V703.188H914.938V701.188ZM902.125 701.188V703.188H904.125V701.188H902.125ZM902.125 471.5H904.125V469.5H902.125V471.5ZM912.938 471.5V701.188H916.938V471.5H912.938ZM914.938 703.188H944V699.188H914.938V703.188ZM944 703.188C945.102 703.188 946.061 703.577 946.961 704.477L949.789 701.648C948.189 700.048 946.232 699.188 944 699.188V703.188ZM946.961 704.477C947.861 705.377 948.25 706.336 948.25 707.438H952.25C952.25 705.206 951.389 703.248 949.789 701.648L946.961 704.477ZM948.25 707.438C948.25 708.539 947.861 709.498 946.961 710.398L949.789 713.227C951.389 711.627 952.25 709.669 952.25 707.438H948.25ZM946.961 710.398C946.061 711.298 945.102 711.688 944 711.688V715.688C946.232 715.688 948.189 714.827 949.789 713.227L946.961 710.398ZM944 711.688H873.062V715.688H944V711.688ZM873.062 711.688C871.961 711.688 871.002 711.298 870.102 710.398L867.273 713.227C868.873 714.827 870.831 715.688 873.062 715.688V711.688ZM870.102 710.398C869.202 709.498 868.812 708.539 868.812 707.438H864.812C864.812 709.669 865.673 711.627 867.273 713.227L870.102 710.398ZM868.812 707.438C868.812 706.336 869.202 705.377 870.102 704.477L867.273 701.648C865.673 703.248 864.812 705.206 864.812 707.438H868.812ZM870.102 704.477C871.002 703.577 871.961 703.188 873.062 703.188V699.188C870.831 699.188 868.873 700.048 867.273 701.648L870.102 704.477ZM873.062 703.188H902.125V699.188H873.062V703.188ZM904.125 701.188V471.5H900.125V701.188H904.125ZM902.125 469.5H873.062V473.5H902.125V469.5ZM873.062 469.5C871.961 469.5 871.002 469.111 870.102 468.211L867.273 471.039C868.873 472.639 870.831 473.5 873.062 473.5V469.5ZM870.102 468.211C869.202 467.311 868.812 466.352 868.812 465.25H864.812C864.812 467.482 865.673 469.439 867.273 471.039L870.102 468.211ZM868.812 465.25C868.812 464.148 869.202 463.189 870.102 462.289L867.273 459.461C865.673 461.061 864.812 463.018 864.812 465.25H868.812ZM870.102 462.289C871.002 461.389 871.961 461 873.062 461V457C870.831 457 868.873 457.861 867.273 459.461L870.102 462.289ZM873.062 461H944V457H873.062V461ZM944 461C945.102 461 946.061 461.389 946.961 462.289L949.789 459.461C948.189 457.861 946.232 457 944 457V461ZM946.961 462.289C947.861 463.189 948.25 464.148 948.25 465.25H952.25C952.25 463.018 951.389 461.061 949.789 459.461L946.961 462.289ZM948.25 465.25C948.25 466.352 947.861 467.311 946.961 468.211L949.789 471.039C951.389 469.439 952.25 467.482 952.25 465.25H948.25ZM946.961 468.211C946.061 469.111 945.102 469.5 944 469.5V473.5C946.232 473.5 948.189 472.639 949.789 471.039L946.961 468.211ZM944 469.5H914.938V473.5H944V469.5Z" fill="white"/>
</svg>
